<?xml version="1.0" encoding="UTF-8" standalone="no"?>
<!-- Created with Inkscape (http://www.inkscape.org/) -->

<svg
   xmlns:dc="http://purl.org/dc/elements/1.1/"
   xmlns:cc="http://creativecommons.org/ns#"
   xmlns:rdf="http://www.w3.org/1999/02/22-rdf-syntax-ns#"
   xmlns:svg="http://www.w3.org/2000/svg"
   xmlns="http://www.w3.org/2000/svg"
   xmlns:sodipodi="http://sodipodi.sourceforge.net/DTD/sodipodi-0.dtd"
   xmlns:inkscape="http://www.inkscape.org/namespaces/inkscape"
   width="108.3583mm"
   height="70.146812mm"
   viewBox="0 0 383.94673 248.5517"
   id="svg4223"
   version="1.1"
   inkscape:version="0.92.2 2405546, 2018-03-11"
   sodipodi:docname="tesseract.svg"
   inkscape:export-filename="/home/irix/Desktop/tess.png"
   inkscape:export-xdpi="168.73753"
   inkscape:export-ydpi="168.73753">
  <defs
     id="defs4225" />
  <sodipodi:namedview
     id="base"
     pagecolor="#ffffff"
     bordercolor="#666666"
     borderopacity="1.0"
     inkscape:pageopacity="0.0"
     inkscape:pageshadow="2"
     inkscape:zoom="0.83972969"
     inkscape:cx="-147.56838"
     inkscape:cy="-40.151302"
     inkscape:document-units="px"
     inkscape:current-layer="layer1"
     showgrid="false"
     fit-margin-top="0"
     fit-margin-left="0"
     fit-margin-right="0"
     fit-margin-bottom="0"
     inkscape:window-width="1920"
     inkscape:window-height="1023"
     inkscape:window-x="0"
     inkscape:window-y="0"
     inkscape:window-maximized="1" />
  <metadata
     id="metadata4228">
    <rdf:RDF>
      <cc:Work
         rdf:about="">
        <dc:format>image/svg+xml</dc:format>
        <dc:type
           rdf:resource="http://purl.org/dc/dcmitype/StillImage" />
        <dc:title />
      </cc:Work>
    </rdf:RDF>
  </metadata>
  <g
     inkscape:label="Layer 1"
     inkscape:groupmode="layer"
     id="layer1"
     transform="translate(-178.73669,-76.681147)">
    <g
       id="g4805"
       transform="matrix(0.23364817,0,0,0.23364817,282.59131,69.445797)">
      <path
         d="m 99.664714,611.32738 228.906396,-113.4075 0,58.337 -148.9797,73.9947"
         style="fill:#ff5555;fill-opacity:1;fill-rule:evenodd;stroke:none;stroke-width:1px;stroke-linecap:butt;stroke-linejoin:miter;stroke-opacity:1"
         id="path2207-4"
         inkscape:connector-curvature="0" />
      <path
         d="m 99.124014,573.97068 179.603996,-88.22809 49.5955,12.69709 -228.781896,113.2667"
         style="fill:#5fd35f;fill-opacity:1;fill-rule:evenodd;stroke:none;stroke-width:1px;stroke-linecap:butt;stroke-linejoin:miter;stroke-opacity:1"
         id="path3954-7"
         inkscape:connector-curvature="0" />
      <path
         d="m 65.718014,628.57948 34.1591,-17.035 -0.7036,-354.7027 -34.0662,-7.6923"
         style="fill:#ff5555;fill-opacity:1;fill-rule:evenodd;stroke:none;stroke-width:1px;stroke-linecap:butt;stroke-linejoin:miter;stroke-opacity:1"
         id="path1331-1"
         inkscape:connector-curvature="0" />
      <path
         d="m 394.67151,681.02658 -294.6619,-69.6582 -34.186696,17.0627 328.299096,78.6946"
         style="fill:#5fd35f;fill-opacity:1;fill-rule:evenodd;stroke:none;stroke-width:1px;stroke-linecap:butt;stroke-linejoin:miter;stroke-opacity:1"
         id="path2209-1"
         inkscape:connector-curvature="0" />
      <path
         d="m 15.196514,177.73293 0,496.18995 426.856596,102.4778 0.3875,-498.1071 L 15.196514,177.73293 Z m 50.607,72.03315 325.814896,76.85831 0,380.09829 -325.814896,-78.237 0,-378.7196 z"
         style="fill:#0093d3;fill-opacity:1;fill-rule:evenodd;stroke:none;stroke-width:1px;stroke-linecap:butt;stroke-linejoin:miter;stroke-opacity:1"
         id="path4030-97"
         inkscape:connector-curvature="0" />
      <path
         d="m 738.9944,133.23025 0,496.18993 -296.87149,147.1945 0,-498.3008 296.87149,-145.08363 z m -35.1963,77.33463 -226.59879,110.98991 0,380.09829 226.59879,-112.3685 0,-378.7197 z"
         style="fill:#ff5555;fill-opacity:1;fill-rule:evenodd;stroke:none;stroke-width:0.99999982px;stroke-linecap:butt;stroke-linejoin:miter;stroke-opacity:1"
         id="path4037-0"
         inkscape:connector-curvature="0" />
      <path
         d="M 99.649114,173.10369 327.57771,60.309441 l 0,59.078219 -147.6388,72.43687 0,0"
         style="fill:#ff5555;fill-opacity:1;fill-rule:evenodd;stroke:none;stroke-width:1px;stroke-linecap:butt;stroke-linejoin:miter;stroke-opacity:1"
         id="path5814-0"
         inkscape:connector-curvature="0" />
      <path
         d="m 655.0101,138.98537 -327.82089,-78.870189 0.1943,59.249779 246.9572,59.17805"
         style="fill:#0093d3;fill-opacity:1;fill-rule:evenodd;stroke:none;stroke-width:1px;stroke-linecap:butt;stroke-linejoin:miter;stroke-opacity:1"
         id="path5816-3"
         inkscape:connector-curvature="0" />
      <path
         d="M 312.63471,30.966861 15.943214,177.90525 442.28281,278.14278 739.0892,133.44461 312.63471,30.966861 Z m 15.1649,29.23832 L 655.4526,138.95911 427.40521,250.05328 99.867014,173.08007 327.79961,60.205181 Z"
         style="fill:#5fd35f;fill-opacity:1;fill-rule:evenodd;stroke:none;stroke-width:0.99999976px;stroke-linecap:butt;stroke-linejoin:miter;stroke-opacity:1"
         id="path5803-8"
         inkscape:connector-curvature="0" />
      <path
         d="m 327.37291,119.43028 35.8332,8.58192 0,353.15459 -35.8332,17.82509 0.8838,-0.088"
         style="fill:#ff5555;fill-opacity:1;fill-rule:evenodd;stroke:none;stroke-width:1px;stroke-linecap:butt;stroke-linejoin:miter;stroke-opacity:1"
         id="path3964-56"
         inkscape:connector-curvature="0" />
      <path
         d="m 278.62381,486.13079 0,-342.87164 48.7281,-23.75574 1.0213,379.05637"
         style="fill:#0093d3;fill-opacity:1;fill-rule:evenodd;stroke:none;stroke-width:1px;stroke-linecap:butt;stroke-linejoin:miter;stroke-opacity:1"
         id="path1325-0"
         inkscape:connector-curvature="0" />
      <path
         d="m 328.64561,498.35108 0,57.7727 247.2176,59.3677 80.27919,-39.165"
         style="fill:#0093d3;fill-opacity:1;fill-rule:evenodd;stroke:none;stroke-width:1px;stroke-linecap:butt;stroke-linejoin:miter;stroke-opacity:1"
         id="path4846-2"
         inkscape:connector-curvature="0" />
      <path
         d="m 657.6942,550.80008 -294.23299,-69.78079 -34.6156,17.30779 328.29909,78.572"
         style="fill:#5fd35f;fill-opacity:1;fill-rule:evenodd;stroke:none;stroke-width:1px;stroke-linecap:butt;stroke-linejoin:miter;stroke-opacity:1"
         id="path4842-63"
         inkscape:connector-curvature="0" />
      <path
         d="m 704.0006,210.33078 -48.0765,23.1268 -0.245,342.7253 48.5666,12.6324"
         style="fill:#0093d3;fill-opacity:1;fill-rule:evenodd;stroke:none;stroke-width:1px;stroke-linecap:butt;stroke-linejoin:miter;stroke-opacity:1"
         id="path2205-8"
         inkscape:connector-curvature="0" />
      <path
         d="m 704.0772,589.02248 -226.82579,112.561 0,-37.9459 178.55419,-87.2962 48.2716,12.6811 z"
         style="fill:#5fd35f;fill-opacity:1;fill-rule:evenodd;stroke:none;stroke-width:1px;stroke-linecap:butt;stroke-linejoin:miter;stroke-opacity:1"
         id="path4848-4"
         inkscape:connector-curvature="0" />
    </g>
    <flowRoot
       xml:space="preserve"
       id="flowRoot4895"
       style="font-style:normal;font-variant:normal;font-weight:normal;font-stretch:normal;line-height:0.01%;font-family:Stenciles;-inkscape-font-specification:Stenciles;letter-spacing:0px;word-spacing:0px;fill:#000000;fill-opacity:1;stroke:none;stroke-width:1px;stroke-linecap:butt;stroke-linejoin:miter;stroke-opacity:1"><flowRegion
         id="flowRegion4897"><rect
           id="rect4899"
           width="398.94363"
           height="104.87694"
           x="216.95131"
           y="275.03903"
           style="font-style:normal;font-variant:normal;font-weight:normal;font-stretch:normal;font-size:50px;font-family:Stenciles;-inkscape-font-specification:Stenciles" /></flowRegion><flowPara
         id="flowPara4901"
         style="font-size:50px;line-height:1.25"> </flowPara></flowRoot>    <g
       aria-label="TESSERACT"
       style="font-style:normal;font-variant:normal;font-weight:normal;font-stretch:normal;line-height:0%;font-family:Stenciles;-inkscape-font-specification:Stenciles;letter-spacing:0px;word-spacing:0px;fill:#000000;fill-opacity:1;stroke:#000000;stroke-width:1.5;stroke-linecap:butt;stroke-linejoin:miter;stroke-miterlimit:4;stroke-dasharray:none;stroke-opacity:1"
       id="text4903">
      <path
         d="m 180.41669,283.65285 v -7.42 h 10.08 v 15.54 0.84 h 1.68 v -0.84 -15.54 h 9.94 v 7.42 0.84 h 1.68 v -0.84 -8.26 -0.84 h -0.84 -10.78 -1.68 -10.92 -0.84 v 0.84 8.26 0.84 h 1.68 z m 11.76,39.9 v -23.59 -0.84 h -1.68 v 0.84 23.59 h -5.04 -0.84 v 1.68 h 0.84 5.04 1.68 4.97 0.84 v -1.68 h -0.84 z"
         style="font-size:70px;line-height:1.25"
         id="path837" />
      <path
         d="m 241.99044,299.12285 h -17.57 -0.84 v 0.84 23.59 h -4.97 -0.84 v 1.68 h 0.84 4.97 1.68 22.54 0.84 v -0.84 -8.12 -0.84 h -1.68 v 0.84 7.28 h -21.7 v -22.75 h 16.73 0.84 v -1.68 z m -16.73,-24.57 h -1.68 -4.97 -0.84 v 1.68 h 0.84 4.97 v 15.54 0.84 h 1.68 v -0.84 -15.54 h 21.7 v 7.42 0.84 h 1.68 v -0.84 -8.26 -0.84 h -0.84 z"
         style="font-size:70px;line-height:1.25"
         id="path839" />
      <path
         d="m 269.26419,300.80285 h 22.54 v 22.75 h -21.7 v -7.28 -0.84 h -1.68 v 0.84 8.12 0.84 h 0.84 23.38 0.84 v -0.84 -24.43 -0.84 h -0.84 -23.38 -0.84 v 1.68 z m 24.22,-17.15 v -8.26 -0.84 h -0.84 -23.38 -0.84 v 0.84 16.38 0.84 h 1.68 v -0.84 -15.54 h 21.7 v 7.42 0.84 h 1.68 z"
         style="font-size:70px;line-height:1.25"
         id="path841" />
      <path
         d="m 314.10794,300.80285 h 22.54 v 22.75 h -21.7 v -7.28 -0.84 h -1.68 v 0.84 8.12 0.84 h 0.84 23.38 0.84 v -0.84 -24.43 -0.84 h -0.84 -23.38 -0.84 v 1.68 z m 24.22,-17.15 v -8.26 -0.84 h -0.84 -23.38 -0.84 v 0.84 16.38 0.84 h 1.68 v -0.84 -15.54 h 21.7 v 7.42 0.84 h 1.68 z"
         style="font-size:70px;line-height:1.25"
         id="path843" />
      <path
         d="m 376.52169,299.12285 h -17.57 -0.84 v 0.84 23.59 h -4.97 -0.84 v 1.68 h 0.84 4.97 1.68 22.54 0.84 v -0.84 -8.12 -0.84 h -1.68 v 0.84 7.28 h -21.7 v -22.75 h 16.73 0.84 v -1.68 z m -16.73,-24.57 h -1.68 -4.97 -0.84 v 1.68 h 0.84 4.97 v 15.54 0.84 h 1.68 v -0.84 -15.54 h 21.7 v 7.42 0.84 h 1.68 v -0.84 -8.26 -0.84 h -0.84 z"
         style="font-size:70px;line-height:1.25"
         id="path845" />
      <path
         d="m 402.95544,325.23285 h 1.68 5.04 0.84 v -1.68 h -0.84 -5.04 v -22.75 h 16.1 l 5.6,23.8 0.21,0.63 h 0.63 5.88 0.84 v -1.68 h -0.84 -5.25 l -5.6,-23.8 -0.21,-0.63 h -0.63 -17.57 -0.84 v 0.84 23.59 h -4.97 -0.84 v 1.68 h 0.84 z m 0,-50.68 h -4.97 -0.84 v 1.68 h 0.84 4.97 v 15.54 0.84 h 1.68 v -0.84 -15.54 h 21.7 v 15.54 0.84 h 1.68 v -0.84 -16.38 -0.84 h -0.84 -22.54 z"
         style="font-size:70px;line-height:1.25"
         id="path847" />
      <path
         d="m 449.47919,291.77285 v -15.54 h 21.63 v 15.54 0.84 h 1.68 v -0.84 -16.38 -0.84 h -0.84 -23.31 -0.84 v 0.84 16.38 0.84 h 1.68 z m -6.65,33.46 h 5.81 0.84 v -0.84 -23.59 h 21.63 v 23.59 0.84 h 0.84 5.88 0.84 v -1.68 h -0.84 -5.04 v -23.59 -0.84 h -0.84 -23.31 -0.84 v 0.84 23.59 h -4.97 -0.84 v 1.68 z"
         style="font-size:70px;line-height:1.25"
         id="path849" />
      <path
         d="m 494.32294,323.55285 v -23.59 -0.84 h -1.68 v 0.84 23.59 h -4.97 -0.84 v 1.68 h 0.84 4.97 1.68 22.54 0.84 v -0.84 -8.12 -0.84 h -1.68 v 0.84 7.28 z m 0,-49 h -1.68 -4.97 -0.84 v 1.68 h 0.84 4.97 v 15.54 0.84 h 1.68 v -0.84 -15.54 h 21.7 v 7.42 0.84 h 1.68 v -0.84 -8.26 -0.84 h -0.84 z"
         style="font-size:70px;line-height:1.25"
         id="path851" />
      <path
         d="m 539.16669,283.65285 v -7.42 h 10.08 v 15.54 0.84 h 1.68 v -0.84 -15.54 h 9.94 v 7.42 0.84 h 1.68 v -0.84 -8.26 -0.84 h -0.84 -10.78 -1.68 -10.92 -0.84 v 0.84 8.26 0.84 h 1.68 z m 11.76,39.9 v -23.59 -0.84 h -1.68 v 0.84 23.59 h -5.04 -0.84 v 1.68 h 0.84 5.04 1.68 4.97 0.84 v -1.68 h -0.84 z"
         style="font-size:70px;line-height:1.25"
         id="path853" />
    </g>
  </g>
</svg>
