<?xml version="1.0" encoding="UTF-8" standalone="no"?>
<!-- Created with Inkscape (http://www.inkscape.org/) -->

<svg
   xmlns:dc="http://purl.org/dc/elements/1.1/"
   xmlns:cc="http://creativecommons.org/ns#"
   xmlns:rdf="http://www.w3.org/1999/02/22-rdf-syntax-ns#"
   xmlns:svg="http://www.w3.org/2000/svg"
   xmlns="http://www.w3.org/2000/svg"
   xmlns:sodipodi="http://sodipodi.sourceforge.net/DTD/sodipodi-0.dtd"
   xmlns:inkscape="http://www.inkscape.org/namespaces/inkscape"
   width="263.76862mm"
   height="85.446175mm"
   viewBox="0 0 263.76862 85.446175"
   version="1.1"
   id="svg8"
   inkscape:version="0.92.2 2405546, 2018-03-11"
   sodipodi:docname="wherever.svg"
   style="enable-background:new"
   inkscape:export-filename="/home/irix/Desktop/wherever.png"
   inkscape:export-xdpi="96"
   inkscape:export-ydpi="96">
  <defs
     id="defs2">
    <filter
       style="color-interpolation-filters:sRGB"
       inkscape:label="Blend"
       id="filter5270">
      <feBlend
         in2="BackgroundImage"
         mode="screen"
         result="blend"
         id="feBlend5268" />
    </filter>
    <filter
       style="color-interpolation-filters:sRGB"
       inkscape:label="Blend"
       id="filter5276">
      <feBlend
         in2="BackgroundImage"
         mode="screen"
         result="blend"
         id="feBlend5274" />
    </filter>
    <filter
       style="color-interpolation-filters:sRGB"
       inkscape:label="Blend"
       id="filter5297">
      <feBlend
         in2="BackgroundImage"
         mode="screen"
         result="blend"
         id="feBlend5295" />
    </filter>
    <filter
       style="color-interpolation-filters:sRGB"
       inkscape:label="Blend"
       id="filter5301">
      <feBlend
         in2="BackgroundImage"
         mode="screen"
         result="blend"
         id="feBlend5299" />
    </filter>
    <filter
       style="color-interpolation-filters:sRGB"
       inkscape:label="Blend"
       id="filter5342">
      <feBlend
         in2="BackgroundImage"
         mode="screen"
         result="blend"
         id="feBlend5340" />
    </filter>
    <filter
       style="color-interpolation-filters:sRGB"
       inkscape:label="Blend"
       id="filter5346">
      <feBlend
         in2="BackgroundImage"
         mode="screen"
         result="blend"
         id="feBlend5344" />
    </filter>
  </defs>
  <sodipodi:namedview
     id="base"
     pagecolor="#ffffff"
     bordercolor="#666666"
     borderopacity="1.0"
     inkscape:pageopacity="0.0"
     inkscape:pageshadow="2"
     inkscape:zoom="0.71219298"
     inkscape:cx="132.96387"
     inkscape:cy="102.7107"
     inkscape:document-units="mm"
     inkscape:current-layer="layer4"
     showgrid="false"
     inkscape:window-width="1920"
     inkscape:window-height="1023"
     inkscape:window-x="0"
     inkscape:window-y="0"
     inkscape:window-maximized="1"
     fit-margin-top="0"
     fit-margin-left="0"
     fit-margin-right="0"
     fit-margin-bottom="0" />
  <metadata
     id="metadata5">
    <rdf:RDF>
      <cc:Work
         rdf:about="">
        <dc:format>image/svg+xml</dc:format>
        <dc:type
           rdf:resource="http://purl.org/dc/dcmitype/StillImage" />
        <dc:title></dc:title>
      </cc:Work>
    </rdf:RDF>
  </metadata>
  <g
     inkscape:groupmode="layer"
     id="layer2"
     inkscape:label="G 1"
     style="display:inline;opacity:1"
     transform="translate(139.27641,-440.69638)" />
  <g
     inkscape:groupmode="layer"
     id="layer4"
     inkscape:label="G 2"
     style="display:inline;opacity:0.85100002"
     transform="translate(139.27641,-440.69638)">
    <rect
       style="opacity:1;fill:#000000;fill-opacity:1;stroke:none;stroke-width:0.89999998;stroke-linecap:round;stroke-linejoin:miter;stroke-miterlimit:4;stroke-dasharray:none;stroke-dashoffset:0;stroke-opacity:1;paint-order:fill markers stroke"
       id="rect839"
       width="263.76862"
       height="85.446175"
       x="-139.27641"
       y="440.69638"
       ry="0.73058075" />
    <g
       id="g5421"
       transform="translate(2.947998e-7,-2.7842713e-6)">
      <path
         d="m -102.61914,478.657 v -3.175 h 3.174998 v 3.175 z m 19.049997,0 v -3.175 h 3.175 v 3.175 z m -19.049997,3.175 v -3.175 h 3.174998 v 3.175 z m 9.524998,0 v -3.175 h 3.175 v 3.175 z m 9.524999,0 v -3.175 h 3.175 v 3.175 z m -19.049997,3.175 v -3.175 h 3.174998 v 3.175 z m 9.524998,0 v -3.175 h 3.175 v 3.175 z m 9.524999,0 v -3.175 h 3.175 v 3.175 z m -19.049997,3.175 v -3.175 h 3.174998 v 3.175 z m 6.349998,0 v -3.175 h 3.175 v 3.175 z m 6.35,0 v -3.175 h 3.175 v 3.175 z m 6.349999,0 v -3.175 h 3.175 v 3.175 z m -15.874999,3.175 v -3.175 h 3.175 v 3.175 z m 3.175,0 v -3.175 h 3.175 v 3.175 z m 6.35,0 v -3.175 h 3.175 v 3.175 z m 3.175,0 v -3.175 h 3.174999 v 3.175 z m -12.7,3.175 v -3.175 h 3.175 v 3.175 z m 12.7,0 v -3.175 h 3.174999 v 3.175 z"
         style="font-style:normal;font-variant:normal;font-weight:normal;font-stretch:normal;font-size:50.79999924px;line-height:1.25;font-family:'ProggyCleanTTSZ Nerd Font Mono';-inkscape-font-specification:'ProggyCleanTTSZ Nerd Font Mono';letter-spacing:0px;word-spacing:0px;fill:#00ff00;fill-opacity:1;stroke:none;stroke-width:0.26458332"
         id="path5352"
         inkscape:connector-curvature="0" />
      <path
         d="m -77.219142,469.132 v -3.175 h 3.175 v 3.175 z m 0,3.175 v -3.175 h 3.175 v 3.175 z m 0,3.175 v -3.175 h 3.175 v 3.175 z m 0,3.175 v -3.175 h 3.175 v 3.175 z m 3.175,0 v -3.175 h 3.175 v 3.175 z m 3.175,0 v -3.175 h 3.174998 v 3.175 z m 3.174998,0 v -3.175 h 3.175 v 3.175 z m -9.524998,3.175 v -3.175 h 3.175 v 3.175 z m 12.699998,0 v -3.175 h 3.175 v 3.175 z m -12.699998,3.175 v -3.175 h 3.175 v 3.175 z m 12.699998,0 v -3.175 h 3.175 v 3.175 z m -12.699998,3.175 v -3.175 h 3.175 v 3.175 z m 12.699998,0 v -3.175 h 3.175 v 3.175 z m -12.699998,3.175 v -3.175 h 3.175 v 3.175 z m 12.699998,0 v -3.175 h 3.175 v 3.175 z m -12.699998,3.175 v -3.175 h 3.175 v 3.175 z m 12.699998,0 v -3.175 h 3.175 v 3.175 z"
         style="font-style:normal;font-variant:normal;font-weight:normal;font-stretch:normal;font-size:50.79999924px;line-height:1.25;font-family:'ProggyCleanTTSZ Nerd Font Mono';-inkscape-font-specification:'ProggyCleanTTSZ Nerd Font Mono';letter-spacing:0px;word-spacing:0px;fill:#00ff00;fill-opacity:1;stroke:none;stroke-width:0.26458332"
         id="path5354"
         inkscape:connector-curvature="0" />
      <path
         d="m -51.819144,478.657 v -3.175 h 3.175 v 3.175 z m 3.175,0 v -3.175 h 3.175 v 3.175 z m 3.175,0 v -3.175 h 3.175 v 3.175 z m -9.525,3.175 v -3.175 h 3.175 v 3.175 z m 12.7,0 v -3.175 h 3.175 v 3.175 z m -12.7,3.175 v -3.175 h 3.175 v 3.175 z m 3.175,0 v -3.175 h 3.175 v 3.175 z m 3.175,0 v -3.175 h 3.175 v 3.175 z m 3.175,0 v -3.175 h 3.175 v 3.175 z m 3.175,0 v -3.175 h 3.175 v 3.175 z m -12.7,3.175 v -3.175 h 3.175 v 3.175 z m 0,3.175 v -3.175 h 3.175 v 3.175 z m 12.7,0 v -3.175 h 3.175 v 3.175 z m -9.525,3.175 v -3.175 h 3.175 v 3.175 z m 3.175,0 v -3.175 h 3.175 v 3.175 z m 3.175,0 v -3.175 h 3.175 v 3.175 z"
         style="font-style:normal;font-variant:normal;font-weight:normal;font-stretch:normal;font-size:50.79999924px;line-height:1.25;font-family:'ProggyCleanTTSZ Nerd Font Mono';-inkscape-font-specification:'ProggyCleanTTSZ Nerd Font Mono';letter-spacing:0px;word-spacing:0px;fill:#00ff00;fill-opacity:1;stroke:none;stroke-width:0.26458332"
         id="path5356"
         inkscape:connector-curvature="0" />
      <path
         d="m -32.769144,478.657 v -3.175 h 3.175 v 3.175 z m 6.35,0 v -3.175 h 3.175 v 3.175 z m 3.175,0 v -3.175 h 3.175 v 3.175 z m -9.525,3.175 v -3.175 h 3.175 v 3.175 z m 3.175,0 v -3.175 h 3.175 v 3.175 z m 9.525,0 v -3.175 h 3.175 v 3.175 z m -12.7,3.175 v -3.175 h 3.175 v 3.175 z m 0,3.175 v -3.175 h 3.175 v 3.175 z m 0,3.175 v -3.175 h 3.175 v 3.175 z m 0,3.175 v -3.175 h 3.175 v 3.175 z"
         style="font-style:normal;font-variant:normal;font-weight:normal;font-stretch:normal;font-size:50.79999924px;line-height:1.25;font-family:'ProggyCleanTTSZ Nerd Font Mono';-inkscape-font-specification:'ProggyCleanTTSZ Nerd Font Mono';letter-spacing:0px;word-spacing:0px;fill:#00ff00;fill-opacity:1;stroke:none;stroke-width:0.26458332"
         id="path5358"
         inkscape:connector-curvature="0" />
      <path
         d="m -7.3691442,478.657 v -3.175 h 3.175 v 3.175 z m 3.175,0 v -3.175 h 3.175 v 3.175 z m 3.175,0 v -3.175 h 3.175 v 3.175 z m -9.5249998,3.175 v -3.175 h 3.1749998 v 3.175 z m 12.6999998,0 v -3.175 h 3.175 v 3.175 z m -12.6999998,3.175 v -3.175 h 3.1749998 v 3.175 z m 3.1749998,0 v -3.175 h 3.175 v 3.175 z m 3.175,0 v -3.175 h 3.175 v 3.175 z m 3.175,0 v -3.175 h 3.175 v 3.175 z m 3.175,0 v -3.175 h 3.175 v 3.175 z m -12.6999998,3.175 v -3.175 h 3.1749998 v 3.175 z m 0,3.175 v -3.175 h 3.1749998 v 3.175 z m 12.6999998,0 v -3.175 h 3.175 v 3.175 z m -9.525,3.175 v -3.175 h 3.175 v 3.175 z m 3.175,0 v -3.175 h 3.175 v 3.175 z m 3.175,0 v -3.175 h 3.175 v 3.175 z"
         style="font-style:normal;font-variant:normal;font-weight:normal;font-stretch:normal;font-size:50.79999924px;line-height:1.25;font-family:'ProggyCleanTTSZ Nerd Font Mono';-inkscape-font-specification:'ProggyCleanTTSZ Nerd Font Mono';letter-spacing:0px;word-spacing:0px;fill:#00ff00;fill-opacity:1;stroke:none;stroke-width:0.26458332"
         id="path5360"
         inkscape:connector-curvature="0" />
      <path
         d="m 11.680856,478.657 v -3.175 h 3.175 v 3.175 z m 12.7,0 v -3.175 h 3.175 v 3.175 z m -12.7,3.175 v -3.175 h 3.175 v 3.175 z m 12.7,0 v -3.175 h 3.175 v 3.175 z m -9.525,3.175 v -3.175 h 3.175 v 3.175 z m 6.35,0 v -3.175 h 3.175 v 3.175 z m -6.35,3.175 v -3.175 h 3.175 v 3.175 z m 6.35,0 v -3.175 h 3.175 v 3.175 z m -3.175,3.175 v -3.175 h 3.175 v 3.175 z m 0,3.175 v -3.175 h 3.175 v 3.175 z"
         style="font-style:normal;font-variant:normal;font-weight:normal;font-stretch:normal;font-size:50.79999924px;line-height:1.25;font-family:'ProggyCleanTTSZ Nerd Font Mono';-inkscape-font-specification:'ProggyCleanTTSZ Nerd Font Mono';letter-spacing:0px;word-spacing:0px;fill:#00ff00;fill-opacity:1;stroke:none;stroke-width:0.26458332"
         id="path5362"
         inkscape:connector-curvature="0" />
      <path
         d="m 37.080866,478.657 v -3.175 h 3.175 v 3.175 z m 3.175,0 v -3.175 h 3.175 v 3.175 z m 3.175,0 v -3.175 h 3.175 v 3.175 z m -9.525,3.175 v -3.175 h 3.175 v 3.175 z m 12.7,0 v -3.175 h 3.175 v 3.175 z m -12.7,3.175 v -3.175 h 3.175 v 3.175 z m 3.175,0 v -3.175 h 3.175 v 3.175 z m 3.175,0 v -3.175 h 3.175 v 3.175 z m 3.175,0 v -3.175 h 3.175 v 3.175 z m 3.175,0 v -3.175 h 3.175 v 3.175 z m -12.7,3.175 v -3.175 h 3.175 v 3.175 z m 0,3.175 v -3.175 h 3.175 v 3.175 z m 12.7,0 v -3.175 h 3.175 v 3.175 z m -9.525,3.175 v -3.175 h 3.175 v 3.175 z m 3.175,0 v -3.175 h 3.175 v 3.175 z m 3.175,0 v -3.175 h 3.175 v 3.175 z"
         style="font-style:normal;font-variant:normal;font-weight:normal;font-stretch:normal;font-size:50.79999924px;line-height:1.25;font-family:'ProggyCleanTTSZ Nerd Font Mono';-inkscape-font-specification:'ProggyCleanTTSZ Nerd Font Mono';letter-spacing:0px;word-spacing:0px;fill:#00ff00;fill-opacity:1;stroke:none;stroke-width:0.26458332"
         id="path5364"
         inkscape:connector-curvature="0" />
      <path
         d="m 56.130856,478.657 v -3.175 h 3.175 v 3.175 z m 6.35,0 v -3.175 h 3.175 v 3.175 z m 3.175,0 v -3.175 h 3.175 v 3.175 z m -9.525,3.175 v -3.175 h 3.175 v 3.175 z m 3.175,0 v -3.175 h 3.175 v 3.175 z m 9.525,0 v -3.175 h 3.175 v 3.175 z m -12.7,3.175 v -3.175 h 3.175 v 3.175 z m 0,3.175 v -3.175 h 3.175 v 3.175 z m 0,3.175 v -3.175 h 3.175 v 3.175 z m 0,3.175 v -3.175 h 3.175 v 3.175 z"
         style="font-style:normal;font-variant:normal;font-weight:normal;font-stretch:normal;font-size:50.79999924px;line-height:1.25;font-family:'ProggyCleanTTSZ Nerd Font Mono';-inkscape-font-specification:'ProggyCleanTTSZ Nerd Font Mono';letter-spacing:0px;word-spacing:0px;fill:#00ff00;fill-opacity:1;stroke:none;stroke-width:0.26458332"
         id="path5366"
         inkscape:connector-curvature="0" />
      <path
         d="m 84.705856,469.132 v -3.175 h 3.175 v 3.175 z m 0,3.175 v -3.175 h 3.175 v 3.175 z m 0,3.175 v -3.175 h 3.175 v 3.175 z m 0,3.175 v -3.175 h 3.175 v 3.175 z m 0,3.175 v -3.175 h 3.175 v 3.175 z m 0,3.175 v -3.175 h 3.175 v 3.175 z m 0,3.175 v -3.175 h 3.175 v 3.175 z m 0,3.175 v -3.175 h 3.175 v 3.175 z m 0,3.175 v -3.175 h 3.175 v 3.175 z m 0,3.175 v -3.175 h 3.175 v 3.175 z m 0,3.175 v -3.175 h 3.175 v 3.175 z"
         style="font-style:normal;font-variant:normal;font-weight:normal;font-stretch:normal;font-size:50.79999924px;line-height:1.25;font-family:'ProggyCleanTTSZ Nerd Font Mono';-inkscape-font-specification:'ProggyCleanTTSZ Nerd Font Mono';letter-spacing:0px;word-spacing:0px;fill:#00ff00;fill-opacity:1;stroke:none;stroke-width:0.26458332"
         id="path5368"
         inkscape:connector-curvature="0" />
      <text
         xml:space="preserve"
         style="font-style:normal;font-variant:normal;font-weight:normal;font-stretch:normal;font-size:50.79999924px;line-height:1.25;font-family:'ProggyCleanTTSZ Nerd Font Mono';-inkscape-font-specification:'ProggyCleanTTSZ Nerd Font Mono';letter-spacing:0px;word-spacing:0px;display:inline;opacity:1;fill:#4a00ff;fill-opacity:1;stroke:none;stroke-width:0.26458332;filter:url(#filter5346)"
         x="-101.68935"
         y="494.53198"
         id="text5320"><tspan
           sodipodi:role="line"
           x="-101.68935"
           y="494.53198"
           style="font-style:normal;font-variant:normal;font-weight:normal;font-stretch:normal;font-size:50.79999924px;font-family:'ProggyCleanTTSZ Nerd Font Mono';-inkscape-font-specification:'ProggyCleanTTSZ Nerd Font Mono';fill:#4a00ff;fill-opacity:1;stroke-width:0.26458332"
           id="tspan5318"
           rotate="0 0 0 0 0 0 0 0 0 0">wherever|</tspan></text>
      <text
         id="text5324"
         y="494.53198"
         x="-103.59488"
         style="font-style:normal;font-variant:normal;font-weight:normal;font-stretch:normal;font-size:50.79999924px;line-height:1.25;font-family:'ProggyCleanTTSZ Nerd Font Mono';-inkscape-font-specification:'ProggyCleanTTSZ Nerd Font Mono';letter-spacing:0px;word-spacing:0px;display:inline;opacity:1;fill:#ff0000;fill-opacity:1;stroke:none;stroke-width:0.26458332;filter:url(#filter5342)"
         xml:space="preserve"><tspan
           rotate="0 0 0 0 0 0 0 0 0 0"
           id="tspan5322"
           style="font-style:normal;font-variant:normal;font-weight:normal;font-stretch:normal;font-size:50.79999924px;font-family:'ProggyCleanTTSZ Nerd Font Mono';-inkscape-font-specification:'ProggyCleanTTSZ Nerd Font Mono';fill:#ff0000;stroke-width:0.26458332"
           y="494.53198"
           x="-103.59488"
           sodipodi:role="line">wherever|</tspan></text>
    </g>
  </g>
</svg>
