<?xml version="1.0" encoding="UTF-8" standalone="no"?>
<svg
   xmlns:dc="http://purl.org/dc/elements/1.1/"
   xmlns:cc="http://creativecommons.org/ns#"
   xmlns:rdf="http://www.w3.org/1999/02/22-rdf-syntax-ns#"
   xmlns:svg="http://www.w3.org/2000/svg"
   xmlns="http://www.w3.org/2000/svg"
   xmlns:sodipodi="http://sodipodi.sourceforge.net/DTD/sodipodi-0.dtd"
   xmlns:inkscape="http://www.inkscape.org/namespaces/inkscape"
   width="1142pt"
   height="1178pt"
   viewBox="0 0 1142 1178"
   version="1.1"
   id="svg2"
   inkscape:version="0.48.2 r9819"
   sodipodi:docname="Beach Lab summer.svg"
   inkscape:export-filename="/Users/Francisco/Desktop/Beach Lab summer.png"
   inkscape:export-xdpi="31.5382"
   inkscape:export-ydpi="31.5382">
  <metadata
     id="metadata18">
    <rdf:RDF>
      <cc:Work
         rdf:about="">
        <dc:format>image/svg+xml</dc:format>
        <dc:type
           rdf:resource="http://purl.org/dc/dcmitype/StillImage" />
        <dc:title></dc:title>
      </cc:Work>
    </rdf:RDF>
  </metadata>
  <defs
     id="defs16">
    <clipPath
       id="clipPath3053">
      <path
         id="path3055"
         d="m 0,850.394 1417.323,0 L 1417.323,0 0,0 0,850.394 z" />
    </clipPath>
  </defs>
  <sodipodi:namedview
     pagecolor="#ffffff"
     bordercolor="#666666"
     borderopacity="1"
     objecttolerance="10"
     gridtolerance="10"
     guidetolerance="10"
     inkscape:pageopacity="0"
     inkscape:pageshadow="2"
     inkscape:window-width="1199"
     inkscape:window-height="856"
     id="namedview14"
     showgrid="false"
     inkscape:zoom="0.39"
     inkscape:cx="734.3366"
     inkscape:cy="575.45389"
     inkscape:window-x="9"
     inkscape:window-y="1"
     inkscape:window-maximized="0"
     inkscape:current-layer="svg2" />
  <rect
     style="fill:#ffff00;fill-opacity:1;stroke:#000000;stroke-width:1.25000000000000000;stroke-miterlimit:4;stroke-opacity:1;stroke-dasharray:none"
     id="rect3172"
     width="1692.1569"
     height="1637.2549"
     x="-107.84314"
     y="-54.950981"
     transform="scale(0.8,0.8)" />
  <g
     id="#ffffffff" />
  <g
     id="#000000ff"
     style="fill:#f44800;fill-opacity:1">
    <path
       fill="#000000"
       opacity="1.00"
       d=" M 1033.86 7.86 C 1034.97 6.00 1037.33 6.83 1038.98 7.31 C 1046.01 9.72 1052.80 13.58 1057.24 19.69 C 1059.61 23.32 1063.65 25.25 1066.42 28.50 C 1069.45 32.00 1072.68 35.58 1074.03 40.12 C 1075.80 45.67 1077.93 51.82 1075.66 57.54 C 1071.03 67.03 1066.63 76.64 1062.25 86.25 C 1056.45 98.69 1052.36 111.82 1047.82 124.74 C 1031.55 172.96 1016.49 221.57 1001.63 270.23 C 1010.64 258.72 1019.00 246.67 1028.83 235.82 C 1037.94 225.88 1047.54 216.16 1058.89 208.76 C 1066.15 203.81 1075.19 202.19 1083.84 202.44 C 1092.90 203.88 1100.13 210.37 1106.37 216.67 C 1110.85 222.47 1117.38 226.33 1121.38 232.55 C 1125.32 238.48 1126.35 245.93 1125.29 252.88 C 1121.51 277.87 1114.23 302.12 1107.73 326.49 C 1101.84 351.23 1096.08 376.00 1090.39 400.79 C 1085.90 420.00 1082.25 439.40 1079.24 458.89 C 1077.46 471.54 1075.39 484.53 1078.05 497.21 C 1086.56 495.27 1094.64 491.65 1102.14 487.23 C 1107.34 483.88 1111.77 479.51 1116.39 475.43 C 1120.72 471.60 1124.27 466.45 1130.05 464.69 C 1133.79 468.54 1137.57 472.35 1141.38 476.14 C 1138.08 483.99 1132.14 490.30 1126.16 496.19 C 1119.98 502.06 1113.45 507.59 1106.40 512.38 C 1098.02 517.52 1088.42 520.22 1078.93 522.45 C 1068.04 524.99 1056.97 520.90 1047.80 515.18 C 1038.39 510.31 1031.54 502.05 1024.22 494.64 C 1017.88 485.05 1018.48 472.87 1019.88 461.95 C 1021.42 438.61 1027.38 415.91 1032.26 393.13 C 1042.48 348.29 1053.24 303.57 1065.17 259.16 C 1067.14 251.27 1070.19 243.68 1071.66 235.67 C 1059.26 243.27 1050.47 255.22 1041.16 266.13 C 1026.37 284.65 1012.44 303.95 1000.61 324.51 C 995.06 333.90 991.43 344.22 987.10 354.18 C 984.45 360.30 981.80 366.43 980.04 372.88 C 972.42 398.80 965.71 424.99 958.49 451.03 C 956.66 457.56 955.11 464.16 954.30 470.91 C 953.86 474.67 951.23 478.70 946.97 478.40 C 937.41 477.83 927.03 476.11 920.00 469.00 C 916.61 465.31 912.67 462.11 909.62 458.15 C 907.36 452.31 907.95 445.81 909.37 439.84 C 910.69 429.99 912.33 420.18 914.02 410.39 C 907.95 420.76 901.93 431.18 895.22 441.15 C 884.54 456.58 870.87 470.60 853.62 478.52 C 843.42 483.15 832.10 485.41 820.91 484.83 C 809.70 484.25 799.30 478.29 791.96 469.99 C 790.23 468.02 788.66 465.90 786.56 464.30 C 780.05 459.12 775.17 452.20 771.20 444.96 C 762.97 461.52 754.19 478.03 742.33 492.32 C 735.66 500.09 727.92 507.88 717.81 510.78 C 708.54 512.02 698.16 512.50 690.12 506.87 C 685.38 504.00 682.33 499.29 678.50 495.45 C 671.84 490.67 667.13 483.79 663.21 476.70 C 654.95 491.70 645.25 505.99 633.54 518.52 C 624.45 527.87 613.37 536.35 600.18 538.53 C 588.27 540.79 575.76 537.75 565.57 531.39 C 561.93 529.10 558.83 526.02 556.38 522.50 C 554.78 520.10 552.13 518.79 550.06 516.89 C 544.54 512.02 541.29 505.16 539.15 498.25 C 534.72 508.36 529.68 518.25 523.43 527.37 C 517.33 536.40 512.26 546.11 505.48 554.67 C 496.05 566.43 485.59 577.48 473.46 586.49 C 461.77 595.51 447.65 601.55 432.95 603.20 C 417.05 605.07 400.86 598.58 389.62 587.42 C 386.90 584.77 384.76 581.58 381.76 579.23 C 369.77 569.24 362.72 554.50 359.31 539.51 C 354.74 519.32 355.58 498.34 358.31 477.95 C 362.58 443.69 375.87 411.09 393.32 381.50 C 406.24 360.16 421.91 339.86 442.46 325.36 C 449.30 320.83 456.50 315.96 464.91 315.20 C 474.84 314.15 485.08 315.75 494.23 319.77 C 498.66 321.65 502.46 324.89 504.97 329.02 C 506.64 332.37 510.62 333.30 512.95 336.06 C 519.34 343.14 522.37 352.60 523.82 361.86 C 524.88 369.22 524.74 376.86 522.62 384.03 C 516.48 404.33 507.33 423.74 495.27 441.19 C 487.63 452.39 478.66 462.59 469.76 472.79 C 457.73 486.14 443.10 496.92 427.50 505.73 C 425.28 507.28 421.84 508.32 421.68 511.50 C 419.54 526.28 419.49 541.87 424.60 556.08 C 425.66 558.29 426.16 561.52 429.01 562.09 C 437.33 565.23 446.39 562.04 453.63 557.66 C 467.96 548.78 480.66 537.24 490.78 523.75 C 500.77 510.47 508.31 495.60 516.18 481.02 C 522.27 469.16 528.66 457.13 531.31 443.94 C 530.87 431.57 531.18 419.11 533.43 406.90 C 539.59 371.52 553.18 336.85 575.94 308.79 C 588.21 293.95 603.30 281.31 620.37 272.34 C 629.51 267.86 639.59 263.38 649.99 264.75 C 660.61 267.94 672.45 271.18 679.38 280.55 C 682.04 284.93 687.06 286.97 690.15 291.01 C 691.91 285.21 692.49 278.32 697.03 273.91 C 705.77 271.59 715.24 273.88 723.19 277.82 C 728.83 280.84 734.97 284.40 737.49 290.63 C 742.40 293.79 748.29 297.54 748.92 303.94 C 749.94 312.23 749.15 320.70 747.40 328.84 C 742.57 348.14 738.89 367.70 734.63 387.13 C 730.59 406.75 726.04 426.28 722.90 446.07 C 721.88 451.45 720.95 456.88 721.09 462.38 C 728.45 457.27 733.37 449.57 738.21 442.21 C 746.56 428.73 754.15 414.68 759.69 399.80 C 761.34 395.73 760.77 391.27 760.80 387.00 C 762.02 351.04 767.67 314.20 784.99 282.19 C 793.08 266.99 804.63 253.76 818.04 243.03 C 830.32 233.33 845.09 225.81 860.98 225.16 C 870.94 224.50 880.43 228.09 889.77 231.00 C 897.42 233.18 902.76 239.46 907.76 245.24 C 912.20 249.11 916.88 253.00 919.77 258.23 C 922.14 263.08 922.84 268.53 923.35 273.85 C 924.04 283.57 924.08 293.43 922.03 303.00 C 920.20 311.76 919.16 320.91 914.84 328.90 C 913.04 332.12 912.00 335.79 909.69 338.71 C 907.33 341.06 903.82 339.48 901.01 339.05 C 897.53 338.05 893.26 338.30 890.77 335.24 C 887.40 331.55 883.65 328.21 880.29 324.52 C 878.74 321.54 879.74 318.00 880.39 314.90 C 885.98 295.75 893.17 276.51 893.15 256.30 C 881.88 257.66 873.11 265.87 866.27 274.33 C 854.30 289.51 846.03 307.22 838.88 325.08 C 831.87 342.21 827.38 360.19 823.27 378.19 C 819.87 394.52 817.14 411.32 818.99 428.02 C 819.74 432.80 820.40 437.97 823.05 442.08 C 831.93 445.81 841.86 442.45 849.60 437.62 C 856.65 433.15 863.04 427.71 869.32 422.24 C 880.05 412.38 887.96 400.00 895.85 387.87 C 908.09 368.26 918.11 347.34 927.20 326.12 C 930.34 319.40 931.47 312.02 933.45 304.94 C 943.17 266.52 953.56 228.27 963.54 189.93 C 968.14 174.87 972.88 159.86 977.63 144.86 C 988.77 110.43 1000.00 75.92 1014.91 42.90 C 1020.45 30.84 1026.27 18.80 1033.86 7.86 M 632.05 325.00 C 620.55 340.23 612.10 357.51 605.13 375.20 C 597.99 393.57 592.38 412.55 588.52 431.88 C 585.75 446.39 583.71 461.24 584.95 476.04 C 585.40 480.29 586.04 484.59 587.59 488.60 C 591.99 490.00 596.76 488.24 600.91 486.60 C 615.68 480.24 627.21 468.18 635.99 454.97 C 644.64 442.08 653.94 429.45 660.19 415.15 C 669.25 393.96 676.38 371.84 679.92 349.04 C 681.06 342.43 680.42 335.72 680.17 329.07 C 679.51 317.70 678.55 306.24 675.38 295.25 C 657.23 297.90 642.74 310.87 632.05 325.00 M 471.73 365.70 C 461.61 380.55 454.83 397.33 448.11 413.91 C 440.64 433.10 432.61 452.12 426.61 471.85 C 426.83 471.80 427.26 471.71 427.48 471.66 C 443.91 457.11 460.67 442.50 473.43 424.48 C 482.12 412.25 489.53 399.06 495.23 385.18 C 500.35 372.70 501.31 358.70 498.14 345.60 C 486.65 347.61 478.08 356.50 471.73 365.70 Z"
       id="path6"
       style="fill:#f44800;fill-opacity:1" />
    <path
       fill="#000000"
       opacity="1.00"
       d=" M 155.92 110.87 C 182.18 101.42 210.23 97.96 238.03 97.93 C 268.23 98.07 299.24 103.17 325.80 118.21 C 336.60 124.29 346.32 132.22 354.50 141.52 C 363.04 149.10 370.62 157.84 376.24 167.82 C 383.44 180.21 387.32 194.20 389.80 208.22 C 393.84 230.98 392.25 254.59 385.82 276.76 C 380.71 294.73 372.88 311.79 364.21 328.29 C 356.21 344.29 345.69 358.80 335.67 373.56 C 324.72 389.22 313.85 404.97 301.75 419.76 C 288.54 434.85 274.83 449.48 261.18 464.16 C 256.70 469.21 251.55 473.57 246.51 478.04 C 262.68 481.39 278.43 487.00 292.82 495.15 C 304.22 501.62 315.12 509.26 323.98 518.98 C 327.70 523.23 332.27 526.66 335.92 530.98 C 346.09 542.14 352.78 556.50 354.19 571.58 C 355.72 589.65 354.00 608.51 345.88 624.97 C 338.90 639.40 328.02 651.55 316.12 662.14 C 301.28 675.29 284.79 686.43 268.02 696.95 C 255.81 704.74 242.89 711.32 230.16 718.20 C 211.85 727.95 193.49 737.59 175.08 747.13 C 142.92 763.47 111.49 781.63 83.00 803.86 C 73.99 811.09 64.95 818.50 57.64 827.51 C 52.66 835.02 46.42 841.65 39.45 847.36 C 37.12 849.14 34.14 851.57 31.06 849.95 C 27.95 848.13 25.29 845.63 22.16 843.83 C 20.21 842.77 18.85 841.01 18.08 838.96 C 16.77 835.35 12.72 834.18 9.96 831.96 C 6.95 830.06 6.88 826.04 4.55 823.59 C 3.22 821.77 0.74 820.43 0.76 817.93 C 0.98 806.31 0.30 794.67 0.84 783.06 C 1.22 774.50 6.79 767.39 12.56 761.54 C 22.42 751.68 33.37 742.99 44.15 734.17 C 57.50 723.06 72.44 714.10 87.36 705.29 C 123.49 684.29 160.73 665.30 197.58 645.61 C 214.90 636.31 232.28 627.09 249.03 616.77 C 268.32 604.79 286.02 589.03 296.50 568.58 C 301.32 559.94 304.05 549.61 301.14 539.86 C 299.03 533.17 295.91 526.01 289.56 522.35 C 274.58 512.25 256.91 506.64 239.08 504.43 C 230.38 503.40 221.45 502.92 212.85 504.90 C 206.11 506.28 202.03 513.44 194.98 513.92 C 190.68 514.04 188.29 510.04 185.51 507.47 C 184.07 506.33 183.46 504.58 182.81 502.95 C 178.56 501.66 176.08 497.84 173.03 494.91 C 169.48 486.48 168.04 477.26 167.24 468.19 C 157.22 513.50 148.60 559.13 140.92 604.90 C 137.65 623.94 135.29 643.13 131.72 662.12 C 131.06 664.13 132.41 667.25 129.91 668.22 C 125.66 669.61 121.38 667.20 117.61 665.47 C 109.45 661.60 102.04 655.85 93.10 653.87 C 90.21 650.73 86.84 647.81 85.51 643.60 C 84.37 643.31 83.24 643.03 82.10 642.74 C 77.96 638.94 73.32 634.24 74.47 628.05 C 76.44 615.74 76.62 603.24 78.32 590.89 C 84.28 543.06 95.38 496.06 107.32 449.42 C 115.78 415.28 125.96 381.61 136.11 347.94 C 145.73 316.71 157.15 286.05 169.97 255.99 C 175.62 242.88 181.33 229.48 190.46 218.36 C 192.80 215.92 195.22 212.36 199.08 212.89 C 206.63 215.06 212.68 220.43 217.92 226.07 C 221.33 231.08 227.04 233.87 230.39 238.92 C 234.14 244.13 238.20 249.22 240.82 255.12 C 242.07 258.10 243.15 261.60 241.68 264.70 C 239.05 270.23 235.56 275.29 232.46 280.55 C 227.20 288.96 223.32 298.11 219.23 307.11 C 203.91 341.97 191.54 378.04 180.69 414.51 C 177.07 426.51 174.09 438.69 171.15 450.86 C 187.17 433.95 205.55 419.42 221.22 402.16 C 239.70 382.56 258.36 363.05 274.72 341.62 C 294.01 316.71 312.01 290.43 324.52 261.39 C 334.12 238.99 339.94 214.28 336.72 189.85 C 335.09 177.12 330.93 164.63 324.01 153.78 C 321.59 150.07 319.15 146.19 315.38 143.70 C 296.91 130.03 273.65 124.51 250.98 123.74 C 234.24 123.12 217.50 125.01 201.04 127.99 C 181.23 131.62 161.66 137.45 143.85 146.98 C 120.36 159.29 101.41 178.44 84.82 198.80 C 68.30 219.52 57.87 244.94 54.78 271.24 C 52.17 292.57 54.05 314.27 58.87 335.16 C 62.18 349.41 67.44 363.28 75.22 375.71 C 82.28 387.23 91.45 397.28 98.40 408.87 C 100.03 411.70 102.74 414.59 101.66 418.14 C 99.95 426.63 96.13 434.80 90.21 441.18 C 85.81 445.97 81.68 451.35 75.98 454.62 C 70.04 454.98 64.82 451.17 60.62 447.36 C 56.65 444.01 53.41 439.94 49.68 436.37 C 37.63 425.81 28.70 412.07 22.39 397.44 C 15.20 380.87 11.70 362.98 9.44 345.14 C 5.80 315.61 7.97 285.12 18.01 256.98 C 24.42 233.37 36.53 211.69 50.63 191.84 C 76.77 155.35 113.36 125.81 155.92 110.87 Z"
       id="path8"
       style="fill:#f44800;fill-opacity:1" />
    <path
       fill="#000000"
       opacity="1.00"
       d=" M 897.59 494.55 C 898.90 492.87 901.30 493.88 903.05 494.08 C 910.02 495.83 916.75 498.62 923.00 502.15 C 927.37 504.62 930.56 508.59 933.46 512.60 C 937.82 515.84 942.29 519.36 944.70 524.38 C 945.93 527.19 946.83 530.59 945.30 533.48 C 942.88 538.23 941.97 543.53 940.41 548.59 C 924.21 605.84 908.32 663.23 895.46 721.35 C 905.08 706.45 914.17 691.14 925.32 677.31 C 933.08 668.11 941.73 659.39 952.13 653.18 C 956.57 650.69 961.63 648.21 966.88 649.21 C 974.55 650.81 982.45 653.24 988.29 658.73 C 991.73 661.57 993.88 665.67 997.50 668.31 C 1008.26 676.83 1014.23 689.99 1016.87 703.19 C 1021.21 725.18 1020.30 747.78 1019.07 770.03 C 1018.20 786.88 1016.13 803.72 1011.57 820.00 C 1003.91 848.15 991.01 874.71 974.91 898.98 C 970.27 905.54 966.20 912.70 960.01 917.96 C 945.54 930.52 927.36 938.40 908.59 941.74 C 891.92 944.51 874.24 944.95 858.23 938.80 C 852.46 936.55 846.42 933.59 843.23 927.99 C 841.66 924.14 837.14 923.36 834.68 920.29 C 827.06 911.81 826.38 899.71 825.76 888.89 C 821.57 896.54 817.33 904.15 812.73 911.56 C 808.08 919.15 802.69 926.24 797.73 933.62 C 791.87 942.28 785.89 951.14 777.64 957.73 C 769.95 962.81 759.81 962.24 751.39 959.39 C 747.05 957.11 743.06 953.83 740.47 949.62 C 738.79 946.90 735.68 945.62 733.45 943.45 C 729.93 940.57 728.03 936.33 726.44 932.20 C 717.01 948.18 706.85 963.79 695.34 978.36 C 689.76 985.13 683.88 992.33 675.54 995.73 C 665.66 999.28 654.79 997.20 645.17 993.78 C 635.58 990.31 627.80 983.34 621.34 975.64 C 602.21 959.99 592.79 935.20 591.22 911.04 C 588.91 876.34 595.27 841.44 606.68 808.74 C 616.33 781.42 629.00 754.83 647.00 731.99 C 656.81 719.41 669.08 708.46 683.62 701.69 C 690.63 698.27 698.47 697.38 706.04 695.94 C 717.76 693.34 730.71 698.59 737.64 708.34 C 740.23 712.25 744.81 714.14 747.63 717.88 C 750.81 714.67 754.22 708.64 759.52 710.61 C 771.41 714.79 781.83 722.52 789.95 732.09 C 793.52 736.16 798.39 739.08 801.30 743.74 C 802.09 747.12 801.57 750.65 801.43 754.10 C 800.40 766.13 798.83 778.16 796.09 789.94 C 791.81 812.17 788.00 834.48 784.49 856.84 C 781.88 873.62 780.42 890.56 779.19 907.48 C 788.24 903.07 792.21 893.38 797.32 885.36 C 803.02 876.87 807.98 867.92 813.00 859.01 C 816.60 852.43 821.05 846.20 823.15 838.91 C 825.07 832.35 827.41 825.86 828.62 819.11 C 828.68 807.39 830.00 795.71 830.97 784.03 C 838.22 702.56 856.42 622.52 878.57 543.93 C 881.90 532.93 885.55 522.04 889.19 511.14 C 891.08 505.22 893.72 499.44 897.59 494.55 M 951.52 695.54 C 946.02 700.71 940.67 706.15 936.61 712.56 C 926.55 727.83 917.54 743.77 908.83 759.83 C 901.69 773.24 894.65 786.74 888.85 800.79 C 879.91 824.18 876.74 849.28 874.92 874.10 C 874.40 883.73 873.17 893.46 874.81 903.06 C 879.39 904.24 884.35 904.70 888.84 902.89 C 896.31 899.96 902.26 894.35 908.14 889.07 C 916.88 881.06 925.05 872.24 931.00 861.92 C 938.28 849.31 942.97 835.45 947.79 821.78 C 956.27 798.42 959.98 773.66 962.64 749.05 C 964.38 728.93 965.98 708.40 962.06 688.43 C 957.90 689.70 954.67 692.69 951.52 695.54 M 706.92 753.95 C 697.49 765.83 690.35 779.34 684.18 793.14 C 676.65 810.17 670.66 827.87 665.90 845.86 C 662.00 860.94 658.54 876.30 658.42 891.96 C 658.13 909.41 658.21 927.58 665.02 943.96 C 668.23 944.45 671.55 944.50 674.67 943.47 C 679.21 942.31 681.89 938.13 684.85 934.85 C 695.03 922.17 704.23 908.73 713.14 895.14 C 718.43 883.52 723.64 871.62 725.33 858.85 C 729.69 831.74 733.80 804.49 734.78 777.02 C 735.21 762.65 735.51 748.10 732.70 733.93 C 722.15 737.52 713.78 745.42 706.92 753.95 Z"
       id="path10"
       style="fill:#f44800;fill-opacity:1" />
    <path
       fill="#000000"
       opacity="1.00"
       d=" M 394.55 626.53 C 395.97 624.33 398.13 622.25 400.99 622.66 C 406.60 623.20 412.52 624.41 416.97 628.10 C 422.54 632.53 428.99 635.90 433.77 641.25 C 439.25 646.77 444.79 652.23 450.25 657.75 C 454.40 661.94 457.24 668.23 455.03 674.08 C 449.53 690.60 443.71 707.00 438.39 723.58 C 420.38 779.06 405.24 835.53 394.43 892.86 C 388.24 925.43 382.60 958.10 378.15 990.95 C 374.03 1020.97 371.08 1051.13 366.66 1081.11 C 388.20 1061.39 409.34 1041.24 431.40 1022.11 C 444.75 1010.77 458.94 1000.46 473.15 990.24 C 492.63 976.45 512.33 962.89 533.05 951.02 C 543.40 944.84 555.70 940.80 567.83 942.54 C 574.12 944.08 580.51 948.28 582.70 954.63 C 586.60 957.18 591.27 959.56 593.18 964.08 C 595.53 982.00 593.22 1000.27 587.81 1017.45 C 584.56 1027.72 581.01 1038.16 574.70 1047.00 C 571.39 1042.63 569.82 1037.15 566.03 1033.14 C 565.44 1033.70 564.27 1034.82 563.68 1035.38 C 563.15 1035.01 562.09 1034.28 561.56 1033.92 C 542.36 1037.08 524.41 1045.19 507.42 1054.41 C 482.26 1068.27 458.58 1084.60 435.19 1101.22 C 409.45 1119.81 384.39 1139.45 361.46 1161.44 C 356.15 1166.07 353.24 1172.64 348.78 1178.00 L 336.08 1178.00 C 333.84 1176.56 331.60 1175.13 329.38 1173.66 C 323.87 1170.47 321.61 1163.91 315.99 1160.83 C 307.66 1152.92 301.74 1141.69 301.75 1130.02 C 300.69 1102.52 301.82 1074.98 303.80 1047.54 C 306.54 1010.53 310.94 973.66 316.26 936.93 C 321.30 902.86 326.79 868.83 333.83 835.10 C 339.81 807.68 346.09 780.32 352.39 752.96 C 355.95 737.86 359.10 722.64 363.62 707.78 C 368.90 689.95 374.49 672.21 380.39 654.57 C 383.63 644.57 388.59 635.17 394.55 626.53 Z"
       id="path12"
       style="fill:#f44800;fill-opacity:1" />
  </g>
  <g
     id="layer1"
     transform="matrix(11.92855,0,0,11.89278,-33.729498,-11338.452)"
     style="fill:#fb8b00;fill-opacity:1">
    <g
       id="g3047"
       transform="matrix(0.13241427,0,0,-0.13241427,-43.284276,1058.0615)"
       style="fill:#fb8b00;fill-opacity:1">
      <g
         id="g3049"
         style="fill:#fb8b00;fill-opacity:1">
        <g
           id="g3051"
           clip-path="url(#clipPath3053)"
           style="fill:#fb8b00;fill-opacity:1">
          <g
             id="g3057"
             transform="translate(630.1045,507.8857)"
             style="fill:#fb8b00;fill-opacity:1">
            <path
               style="fill:#fb8b00;fill-opacity:1;fill-rule:evenodd;stroke:none"
               id="path3059"
               d="m 0,0 c 9.83,9.318 17.601,19.694 24.186,32.5 5.185,10.085 9.318,19.73 6.298,33.76 -0.673,3.128 -2.869,8.238 -5.794,8.062 C 9.389,73.402 -0.376,52.052 -9.852,27.98 -19.327,3.908 -23.975,-7.291 -25.446,-21.415 -16.401,-15.652 -8.085,-7.664 0,0 m 83.989,31.726 c -8.865,-33.299 -7.926,-61.422 9.741,-55.808 5.155,1.638 14.86,6.604 23.925,19.799 14.093,20.513 15.049,22.722 20.659,37.539 5.611,14.816 8.967,31.844 8.818,36.783 -0.148,4.9 -0.562,37.449 -9.646,36.483 C 111.067,103.716 92.854,65.026 83.989,31.726 m 252.456,57.749 c 1.797,1.324 6.881,12.129 8.818,15.117 5.635,8.689 12.178,17.03 18.644,25.446 5.749,7.481 21.249,24.533 31.241,27.461 2.08,0.61 7.081,1.461 9.825,1.26 6.435,-0.473 13.87,-8.049 15.847,-10.38 2.957,-3.486 4.833,-8.34 3.805,-15.066 -2.408,-15.738 -7.206,-31.957 -11.086,-46.357 -0.322,-1.195 -10.101,-42.788 -13.101,-56.435 -0.753,-3.421 -6.442,-31.354 -6.802,-43.081 -0.431,-14.04 3.954,-16.855 6.046,-17.384 3.183,-0.805 14.627,4.338 18.392,7.054 2.864,2.067 5.359,4.46 8.113,6.899 2.89,2.558 5.428,6.194 8.767,6.706 -3.072,-8.441 -16.611,-19.255 -21.565,-22.722 -0.682,-0.479 -5.613,-4.128 -18.493,-7.007 -10.192,-2.277 -19.16,4.461 -20.407,5.039 -1.974,0.914 -3.548,2.349 -5.543,3.78 -4.843,3.471 -5.191,12.972 -5.291,14.863 -0.047,0.873 1.613,17.618 1.763,18.645 2.649,18.011 20.357,92.188 28.973,122.946 1.222,4.358 7.948,21.747 -1.511,19.399 -7.1,-1.762 -18.151,-15.91 -20.911,-19.148 -5.585,-6.549 -25.45,-32.618 -31.745,-48.12 -2.18,-5.369 -4.381,-10.448 -6.55,-15.619 -2.256,-5.379 -10.069,-35.198 -12.597,-44.343 -1.018,-3.683 -4.884,-17.502 -5.29,-20.407 -0.627,-4.482 -0.701,-8.995 -5.794,-8.818 -2.296,0.08 -9.1,1.245 -10.677,2.029 -0.979,0.487 -4.282,2.254 -5.012,2.984 -1.271,1.271 -1.441,4.488 -1.539,7.094 -0.07,1.881 0.711,4.17 1.008,6.551 1.885,15.118 5.967,31.904 7.307,47.113 -4.084,-9.906 -18.834,-34.807 -23.401,-41.482 -14.488,-21.175 -29.358,-26.104 -36.813,-27.551 -7.166,-1.389 -13.772,-1.425 -19.651,1.26 -11.121,5.079 -16.681,15.974 -21.164,27.714 -2.877,-5.479 -18.356,-41.268 -36.04,-46.407 -1.198,-0.349 -6.179,-0.573 -8.313,-0.505 -6.218,0.203 -13.012,2.797 -19.651,15.117 -2.673,4.96 -1.809,11.528 -1.764,18.14 -3.072,-6.684 -5.784,-11.755 -10.172,-19.068 -1.877,-3.129 -6.99,-10.448 -11.998,-16.204 -5.009,-5.756 -12.534,-12.406 -20.659,-14.613 -8.125,-2.205 -15.253,-1.069 -22.171,2.269 -9.896,4.772 -13.971,13.193 -15.611,33.844 -2.323,-7.112 -7.628,-19.871 -14.116,-29.348 -4.198,-6.131 -7.43,-12.63 -12.631,-18.945 -7.054,-8.566 -14.142,-15.743 -23.651,-22.083 -3.012,-2.008 -18.09,-10.642 -32.525,-7.188 -8.704,2.082 -41.044,13.04 -28.522,81.279 5.471,29.82 29.347,78.384 60.552,93.614 8.204,4.005 22.878,1.234 28.604,-3.343 6.528,-5.216 10.865,-20.677 7.43,-31.948 C 29.732,19.73 14.294,3.739 7.558,-4.283 c -15.26,-18.173 -31.889,-24.329 -33.012,-26.432 -0.751,-1.406 -5.048,-31.309 9.287,-39.749 8.446,-4.972 17.401,1.011 23.473,5.464 15.458,11.334 22.804,23.789 29.378,35.758 9.188,16.73 13.085,24.85 14.942,33.394 0,4.459 -1.568,15.439 4.376,37.729 5.711,21.42 16.471,42.104 30.958,56.221 14.893,14.511 31.671,22.079 40.269,20.814 1.081,-0.16 11.295,-3.291 14.864,-6.047 8.908,-6.877 6.112,-11.505 9.322,-18.14 1.433,3.094 1.449,6.424 2.519,10.078 0.769,2.621 1.989,7.518 4.031,8.314 0.666,0.259 3.818,0.507 4.535,0.504 0.841,-0.004 3.808,-0.493 5.292,-0.756 4.704,-0.837 13.719,-5.59 15.368,-9.826 1.143,-2.939 0.94,-8.087 0.504,-12.597 -0.482,-4.973 -2.172,-10.08 -3.276,-15.368 C 177.373,60.642 168.477,19.567 167.792,14.36 167.08,8.956 165.068,1.979 166.28,-2.771 c 0.618,-2.426 1.465,-5.833 4.786,-5.543 3.322,0.29 9.658,6.302 19.916,25.676 4.459,8.42 7.1,15.61 7.307,16.7 0.497,2.63 -0.002,5.73 0.252,9.07 0.657,8.666 1.203,43.128 19.034,70.618 5.888,9.078 26.376,33.434 51.005,30.158 2.068,-0.276 12.937,-3.267 15.619,-4.787 2.96,-1.677 7.487,-6.281 8.819,-8.818 2.771,-5.277 2.766,-15.568 2.52,-21.667 -0.165,-4.082 -2.728,-15.929 -3.276,-17.888 -1.111,-3.969 -2.21,-5.333 -3.78,-8.817 -1.506,-3.345 -2.094,-4.806 -6.046,-3.779 -1.036,0.268 -5.812,1.108 -6.551,1.511 -3.066,1.679 -0.412,8.639 0.757,12.345 2.596,8.239 6.697,22.358 6.55,30.737 -0.047,2.662 0.763,8.751 -6.292,8.617 -22.793,-0.429 -40.707,-56.197 -42.332,-64.799 -0.576,-3.053 -18.247,-59.771 7.809,-62.23 6.949,-0.655 14.086,4.284 17.888,7.306 8.838,7.025 12.802,9.951 24.101,27.486 11.298,17.534 21.911,43.099 22.257,44.569 0.716,3.06 12.458,48.848 17.887,68.528 1.574,5.707 2.766,11.518 4.534,17.132 4.223,13.398 8.521,27.565 13.101,41.065 0.94,2.77 16.262,51.641 31.242,73.063 1.318,1.886 8.074,-2.048 8.566,-2.267 1.186,-0.531 4.037,-2.677 5.039,-4.031 0.617,-0.835 3.939,-4.023 4.861,-7.413 0.749,-2.757 2.055,-5.353 1.531,-9.48 -0.224,-1.767 -1.647,-3.741 -2.519,-5.795 -0.833,-1.96 -7.803,-16.43 -9.826,-21.919 -14.204,-38.543 -40.468,-126.589 -42.326,-132.016 -1.21,-3.535 -2.42,-7.182 -2.268,-11.086"
               inkscape:connector-curvature="0" />
          </g>
          <g
             id="g3061"
             transform="translate(486.874,492.0845)"
             style="fill:#fb8b00;fill-opacity:1">
            <path
               style="fill:#fb8b00;fill-opacity:1;fill-rule:evenodd;stroke:none"
               id="path3063"
               d="m 0,0 c 19.983,-2.158 35.122,-7.952 48.462,-16.762 26.253,-17.337 26.504,-36.471 26,-49 -1.077,-26.787 -16.428,-45.512 -60,-72 -7.884,-4.794 -49.146,-26.361 -57.64,-30.698 -46.21,-23.597 -69.418,-44.771 -73.699,-51.831 -2.066,-3.404 -11.266,-12.857 -13.976,-12.917 -2.103,-0.047 -3.219,1.34 -4.787,2.519 -1.415,1.064 -3.201,1.852 -4.283,3.023 -0.938,1.018 -1.111,2.875 -2.267,4.283 -1.232,1.499 -2.444,2.187 -2.771,3.527 -0.289,1.181 0.32,2.696 0.252,4.535 -0.139,3.688 -0.669,17.918 0.385,21.256 2.06,6.527 6.321,11.363 29.688,30.142 23.368,18.778 92.845,51.806 124.785,70.798 9.163,5.448 27.677,16.963 36.245,37.375 8.646,20.599 -15.108,40.37 -45.819,44.085 -6.032,0.729 -12.03,0.969 -17.585,-0.496 -4.43,-1.167 -9.395,-9.263 -14.731,-3.543 -0.377,0.405 -0.824,1.064 -1.259,1.512 -0.597,0.613 -1.322,0.962 -1.512,1.259 -0.897,1.408 -5.78,16.867 -2.821,25.902 0.766,2.34 5.364,6.411 7.795,8.769 8.226,7.976 16.584,15.056 23.934,22.926 10.279,11.004 20.842,21.839 30.072,33.164 33.922,41.62 46.188,71.222 46.311,95.499 0.183,36.411 -26.654,64.929 -83.793,57.683 -45.524,-5.772 -64.524,-22.772 -82.755,-44.044 -16.939,-19.763 -26.188,-46.659 -20.959,-80.356 5.23,-33.697 18.286,-42.219 26.946,-56.694 0.654,-1.092 2.566,-3.805 2.52,-4.787 -0.219,-4.676 -3.088,-9.718 -3.276,-10.33 -0.879,-2.865 -11.198,-14.181 -13.333,-14.561 -2.719,-0.484 -7.027,2.062 -8.818,3.78 -1.7,1.629 -17.394,13.484 -23.917,43.295 -9.645,44.071 2.182,69.227 3.602,74.912 4.306,17.238 37.6,89.201 118.918,98.053 57.515,6.261 97.783,-13.164 108.548,-51.04 C 104.967,152.28 93.287,123.801 76.812,93.985 73.197,87.442 49.487,52.817 40.289,42.087 35.714,36.75 16.884,16.347 12.071,11.351 9.684,8.872 1.983,2.695 0,0"
               inkscape:connector-curvature="0" />
          </g>
          <g
             id="g3065"
             transform="translate(469.5264,659.8804)"
             style="fill:#fb8b00;fill-opacity:1">
            <path
               style="fill:#fb8b00;fill-opacity:1;fill-rule:evenodd;stroke:none"
               id="path3067"
               d="m 0,0 c 1.213,-0.735 5.482,-2.407 6.298,-3.527 0.396,-0.543 4.219,-3.51 4.989,-4.56 3.06,-4.173 6.674,-8.736 8.08,-12.66 1.311,-3.66 0.505,-4.864 -1.008,-7.558 -2.789,-4.966 -6.302,-9.927 -8.818,-15.368 -1.892,-4.092 -15.147,-30.776 -29.729,-80.621 -8.728,-29.832 -22.502,-102.097 -27.954,-139.996 -0.847,-5.892 -1.836,-11.48 -2.771,-16.377 -0.363,-1.902 0.417,-2.494 -0.504,-3.274 -2.611,-2.211 -8.888,1.691 -11.085,2.772 -1.798,0.882 -10.548,6.277 -13.068,5.881 -1.538,2.634 -4.607,3.438 -4.787,8.063 -0.109,2.787 0.831,6.015 1.007,9.069 1.742,30.123 10.804,70.387 17.877,98.174 4.708,18.501 5.992,24.539 15.62,56.939 5.167,17.391 12.067,41.69 28.163,78.985 3.549,8.223 8.995,19.206 14.667,23.555 C -2.404,-0.029 -1.711,0.125 0,0"
               inkscape:connector-curvature="0" />
          </g>
          <g
             id="g3069"
             transform="translate(756.5483,242.1602)"
             style="fill:#fb8b00;fill-opacity:1">
            <path
               style="fill:#fb8b00;fill-opacity:1;fill-rule:evenodd;stroke:none"
               id="path3071"
               d="m 0,0 c -0.586,-4.123 -5.201,-58.697 18.251,-49.488 4.449,1.746 22.778,29.685 23.178,30.231 0.563,0.77 4.277,9.938 5.795,14.11 2.58,7.094 6.823,42.534 7.054,45.096 2.356,26.097 2.044,53.789 -6.298,51.649 C 22.251,84.993 3.765,26.51 0,0 M 180.5,109.232 C 175.319,103.124 157.044,71.881 148,51.287 138.956,30.693 137.951,1.637 137.419,-6.911 c -0.239,-3.821 -0.319,-13.661 3.526,-15.62 8.978,-3.831 13.45,-3.391 23.935,6.046 15.683,14.116 19.215,22.057 28.217,48.373 9.002,26.315 14.955,92.792 1.007,88.682 -0.227,-0.067 -0.462,-0.252 -0.503,-0.252 -3.005,-0.019 -11.343,-9.012 -13.101,-11.086 M 145.48,70.686 c 1.136,2.84 22.317,37.827 30.613,48.196 10.402,13.002 21.809,20.875 27.74,19.566 7.316,-1.614 11.468,-3.29 15.85,-8.173 8.669,-9.659 13.666,-25.016 9.908,-70.586 -2.48,-30.04 -16.192,-57.953 -30.761,-78.565 -1.237,-1.751 -2.367,-3.425 -3.78,-5.039 -1.303,-1.49 -18.202,-19.317 -50.577,-19.023 -13.342,0.122 -21.596,4.924 -23.431,6.298 -9.4,7.038 -7.088,24.844 -7.559,40.562 -1.837,-1.326 -2.457,-3.645 -3.527,-5.542 -5.132,-9.101 -10.412,-19.361 -16.627,-27.966 -1.289,-1.784 -6.097,-8.806 -7.307,-10.581 -2.976,-4.365 -6.273,-8.376 -10.078,-11.589 -0.714,-0.603 -6.596,-4.713 -17.131,-1.26 -1.15,0.377 -4.669,3.277 -5.542,4.283 -4.61,5.312 -5.854,17.42 -5.291,22.674 -2.904,-7.129 -22.343,-38.716 -32.249,-46.861 -3.716,-3.055 -6.794,-4.507 -12.848,-4.534 -3.437,-0.016 -7.203,0.896 -10.077,1.764 -18.564,5.6 -25.46,27.444 -26.202,29.728 -6.299,19.378 -3.026,46.784 1.763,65.757 3.776,14.956 14.544,47.572 34.516,70.039 6.186,6.96 14.8,13.457 23.179,16.375 2.496,0.871 12.441,2.645 14.36,2.771 3.085,0.204 8.083,-1.387 10.077,-2.518 6.356,-3.608 8.338,-8.221 11.841,-14.612 0.546,2.77 5.535,7.357 6.803,7.557 2.429,0.385 9.658,-3.961 10.834,-4.535 C 81.851,93.958 90.23,86.68 90.81,85.047 91.913,81.934 89.116,62.195 88.038,58.089 87.001,54.137 80.869,19.393 79.221,6.945 c -0.82,-6.178 -1.449,-12.541 -2.016,-19.65 -0.459,-5.751 -1.994,-13.772 3.527,-14.613 3.958,-0.604 8.259,4.17 9.826,6.55 1.859,2.828 3.491,6.007 5.543,9.071 3.824,5.711 7.221,12.135 10.833,18.39 1.809,3.135 3.896,6.507 4.787,9.575 0.403,1.392 3.375,10.494 3.779,13.604 0.179,1.378 -0.11,2.72 0,4.283 3.038,43.353 9.339,91.268 31.744,171.067 1.029,3.67 6.292,19.749 8.062,24.69 0.465,1.298 3.767,7.863 5.039,8.062 2.549,0.398 8.543,-2.133 9.574,-2.52 1.447,-0.541 6.399,-2.81 8.142,-4.432 2.719,-2.529 5.321,-5.138 5.461,-9.424 0.051,-1.518 -1.387,-3.255 -1.763,-4.786 -1.431,-5.842 -28.315,-96.59 -36.279,-146.126"
               inkscape:connector-curvature="0" />
          </g>
          <g
             id="g3073"
             transform="translate(566.6147,95.5439)"
             style="fill:#fb8b00;fill-opacity:1">
            <path
               style="fill:#fb8b00;fill-opacity:1;fill-rule:evenodd;stroke:none"
               id="path3075"
               d="m 0,0 c 4.787,3.472 39.807,37.073 53.956,48.712 14.537,11.956 49.509,36.762 66.552,45.434 2.637,1.343 15.241,5.935 21.88,1.521 6.638,-4.416 5.089,-5.837 5.376,-8.459 1.674,-15.302 -3.41,-29.96 -4.981,-34.762 -1.641,-5.017 -4.467,-11.154 -6.249,-13.795 -1.783,-2.64 -2.362,2.65 -3.891,3.923 -1.315,1.094 -0.183,4.042 -4.414,3.438 C 108.993,43.266 87.003,31.427 51.15,6.208 15.289,-19.019 -3.047,-37.775 -3.676,-38.69 c -0.492,-0.719 -4.86,-8.334 -7.379,-8.809 -3.549,-0.669 -10.916,3.928 -12.648,5.754 -3.147,3.317 -7.779,10.342 -8.099,16.782 -2.975,59.941 12.639,151.734 19.105,184.685 2.405,12.257 16.25,72.359 17.711,78.168 2.941,11.691 12.667,42.002 14.598,47.052 2.187,5.723 6.56,13.192 9.009,16.03 0.94,1.09 2.68,1.305 5.039,0.836 1.831,-0.365 5.261,-1.267 5.987,-1.731 0.839,-0.536 7.766,-5.651 10.076,-7.173 1.097,-0.722 2.08,-2.105 3.164,-3.14 2.679,-2.56 7.19,-6.242 6.623,-11.724 C 59.105,274.135 35.116,213.747 20.739,138.68 6.362,63.613 8.005,47.444 0,0"
               inkscape:connector-curvature="0" />
          </g>
        </g>
      </g>
    </g>
  </g>
</svg>
